<?xml version="1.0" standalone="no"?>
<!DOCTYPE svg PUBLIC "-//W3C//DTD SVG 1.1//EN" "http://www.w3.org/Graphics/SVG/1.1/DTD/svg11.dtd">
<svg t="1640142990919" class="icon" viewBox="0 0 1024 1024" version="1.1" xmlns="http://www.w3.org/2000/svg" p-id="2839" xmlns:xlink="http://www.w3.org/1999/xlink" width="200" height="200">
<defs>
<style type="text/css">
</style>
</defs>
<path d="M972.8 819.2c30.72 0 51.2 20.48 51.2 51.2v51.2c0 56.32-46.08 102.4-102.4 102.4H102.4C46.08 1024 0 977.92 0 921.6V102.4C0 46.08 46.08 0 102.4 0h819.2c56.32 0 102.4 46.08 102.4 102.4v51.2c0 30.72-20.48 51.2-51.2 51.2-30.72 0-51.2-20.48-51.2-51.2V102.4H102.4v819.2h819.2v-51.2c0-30.72 20.48-51.2 51.2-51.2z" p-id="2840" fill="#dbdbdb"></path><path d="M1024 512c0-4.887273 0-14.708364-5.12-19.595636 0-4.887273-5.12-9.774545-10.24-14.708364l-143.36-137.169455a51.060364 51.060364 0 0 0-71.68 0c-20.48 19.549091-20.48 48.965818 0 68.561455l56.32 53.899636H563.2c-30.72 0-51.2 19.595636-51.2 49.012364 0 29.416727 20.48 49.012364 51.2 49.012364h286.72l-56.32 53.899636c-20.48 19.549091-20.48 48.965818 0 68.561455 20.48 19.595636 51.2 19.595636 71.68 0l143.36-137.169455c5.12-4.887273 10.24-9.774545 10.24-14.708364 5.12-4.887273 5.12-14.708364 5.12-19.595636z" p-id="2841" fill="#dbdbdb">
</path>
</svg>